<?xml version="1.0" encoding="utf-8"?>
<!-- Generator: Adobe Illustrator 15.0.0, SVG Export Plug-In . SVG Version: 6.00 Build 0)  -->
<!DOCTYPE svg PUBLIC "-//W3C//DTD SVG 1.1//EN" "http://www.w3.org/Graphics/SVG/1.1/DTD/svg11.dtd">
<svg version="1.1" id="Layer_1" xmlns="http://www.w3.org/2000/svg" xmlns:xlink="http://www.w3.org/1999/xlink" x="0px" y="0px"
	 width="123.529px" height="73.529px" viewBox="0 0 123.529 73.529" enable-background="new 0 0 123.529 73.529"
	 xml:space="preserve">
<rect fill="#009FE3" width="123.529" height="73.529"/>
<g>
	<path d="M17.854,17.355l7.561,20.594c0.864,2.304,1.729,5.041,2.304,7.129h0.144c0.648-2.088,1.368-4.752,2.232-7.273l6.913-20.45
		h6.696L34.2,42.197c-4.537,11.953-7.633,18.001-11.953,21.818c-3.168,2.664-6.193,3.744-7.777,4.032l-1.584-5.256
		c1.584-0.504,3.672-1.512,5.544-3.096c1.728-1.368,3.816-3.816,5.329-7.057c0.288-0.648,0.504-1.152,0.504-1.512
		s-0.144-0.864-0.504-1.656L10.942,17.355H17.854z"/>
	<path d="M52.271,35.933c0.144,8.569,5.544,12.097,11.953,12.097c4.537,0,7.345-0.792,9.649-1.8l1.152,4.537
		c-2.232,1.008-6.121,2.232-11.665,2.232c-10.729,0-17.137-7.128-17.137-17.642c0-10.513,6.192-18.722,16.345-18.722
		c11.449,0,14.401,9.937,14.401,16.346c0,1.296-0.072,2.232-0.216,2.952H52.271z M70.848,31.396
		c0.072-3.96-1.656-10.225-8.785-10.225c-6.48,0-9.217,5.833-9.721,10.225H70.848z"/>
	<path d="M83.95,45.797c1.944,1.152,5.256,2.448,8.424,2.448c4.537,0,6.697-2.232,6.697-5.185c0-3.024-1.8-4.608-6.409-6.336
		c-6.336-2.304-9.289-5.688-9.289-9.865c0-5.617,4.608-10.225,12.025-10.225c3.528,0,6.625,0.937,8.497,2.16l-1.512,4.608
		c-1.368-0.864-3.889-2.088-7.129-2.088c-3.744,0-5.76,2.16-5.76,4.752c0,2.88,2.016,4.176,6.552,5.977
		c5.977,2.232,9.145,5.256,9.145,10.441c0,6.192-4.825,10.513-12.961,10.513c-3.816,0-7.344-1.008-9.792-2.448L83.95,45.797z"/>
</g>
</svg>
