<?xml version="1.0" encoding="utf-8"?>
<!-- Generator: Adobe Illustrator 15.0.0, SVG Export Plug-In . SVG Version: 6.00 Build 0)  -->
<!DOCTYPE svg PUBLIC "-//W3C//DTD SVG 1.1//EN" "http://www.w3.org/Graphics/SVG/1.1/DTD/svg11.dtd">
<svg version="1.1" id="Layer_1" xmlns="http://www.w3.org/2000/svg" xmlns:xlink="http://www.w3.org/1999/xlink" x="0px" y="0px"
	 width="500px" height="500px" viewBox="0 0 500 500" enable-background="new 0 0 500 500" xml:space="preserve">
<g display="none">
	<g display="inline">
		<path d="M159.12,88.628h-17.139v12.986h14.326c1.328,0,2.319,0.297,2.974,0.893c0.654,0.597,0.981,1.393,0.981,2.389
			s-0.332,1.787-0.996,2.373s-1.65,0.879-2.959,0.879h-14.326v14.15c0,1.797-0.405,3.13-1.216,3.998
			c-0.811,0.869-1.851,1.305-3.12,1.305c-1.289,0-2.339-0.439-3.149-1.318c-0.81-0.879-1.216-2.207-1.216-3.984V87.251
			c0-1.25,0.186-2.271,0.557-3.062s0.952-1.366,1.743-1.729c0.791-0.361,1.802-0.541,3.032-0.541h20.508
			c1.387,0,2.417,0.307,3.091,0.922c0.674,0.615,1.011,1.422,1.011,2.418c0,1.016-0.337,1.83-1.011,2.445
			C161.537,88.319,160.507,88.628,159.12,88.628z"/>
		<path d="M196.796,111.341c0,2.383-0.371,4.58-1.113,6.592c-0.742,2.012-1.816,3.74-3.223,5.186
			c-1.407,1.446-3.086,2.553-5.039,3.324s-4.15,1.158-6.592,1.158c-2.422,0-4.6-0.392-6.533-1.172
			c-1.934-0.781-3.608-1.9-5.024-3.355c-1.416-1.454-2.49-3.174-3.223-5.156c-0.732-1.981-1.099-4.174-1.099-6.576
			c0-2.422,0.371-4.639,1.113-6.65c0.742-2.011,1.807-3.73,3.193-5.156c1.386-1.426,3.066-2.524,5.039-3.297
			c1.973-0.771,4.15-1.156,6.533-1.156c2.422,0,4.619,0.391,6.592,1.172c1.973,0.781,3.662,1.895,5.068,3.34
			c1.406,1.445,2.476,3.164,3.208,5.156S196.796,108.938,196.796,111.341z M188.769,111.341c0-3.262-0.718-5.801-2.153-7.617
			c-1.435-1.816-3.364-2.725-5.786-2.725c-1.562,0-2.939,0.405-4.131,1.215c-1.191,0.811-2.109,2.008-2.754,3.59
			c-0.645,1.582-0.967,3.428-0.967,5.537c0,2.09,0.317,3.916,0.952,5.479c0.635,1.563,1.543,2.758,2.725,3.588
			c1.182,0.831,2.573,1.246,4.175,1.246c2.422,0,4.351-0.913,5.786-2.74C188.051,117.087,188.769,114.563,188.769,111.341z"/>
		<path d="M233.036,111.341c0,2.383-0.371,4.58-1.113,6.592c-0.742,2.012-1.816,3.74-3.223,5.186
			c-1.407,1.446-3.086,2.553-5.039,3.324c-1.953,0.771-4.15,1.158-6.592,1.158c-2.422,0-4.6-0.392-6.533-1.172
			c-1.934-0.781-3.608-1.9-5.024-3.355c-1.416-1.454-2.49-3.174-3.223-5.156c-0.732-1.981-1.099-4.174-1.099-6.576
			c0-2.422,0.371-4.639,1.113-6.65c0.742-2.011,1.807-3.73,3.193-5.156c1.386-1.426,3.066-2.524,5.039-3.297
			c1.973-0.771,4.15-1.156,6.533-1.156c2.422,0,4.619,0.391,6.592,1.172c1.973,0.781,3.662,1.895,5.068,3.34
			c1.406,1.445,2.476,3.164,3.208,5.156S233.036,108.938,233.036,111.341z M225.009,111.341c0-3.262-0.718-5.801-2.153-7.617
			s-3.364-2.725-5.786-2.725c-1.562,0-2.939,0.405-4.131,1.215c-1.191,0.811-2.109,2.008-2.754,3.59
			c-0.645,1.582-0.967,3.428-0.967,5.537c0,2.09,0.317,3.916,0.952,5.479c0.635,1.563,1.543,2.758,2.725,3.588
			c1.182,0.831,2.573,1.246,4.175,1.246c2.422,0,4.351-0.913,5.786-2.74S225.009,114.563,225.009,111.341z"/>
		<path d="M276.835,122.737V83.05c0-1.602,0.356-2.812,1.069-3.633c0.713-0.821,1.675-1.23,2.886-1.23s2.188,0.405,2.93,1.215
			c0.742,0.811,1.113,2.027,1.113,3.648v39.688c0,1.621-0.376,2.837-1.128,3.646c-0.752,0.811-1.725,1.217-2.915,1.217
			c-1.172,0-2.124-0.421-2.856-1.26C277.201,125.501,276.835,124.3,276.835,122.737z"/>
		<path d="M297.139,86.36c-1.113,0-2.065-0.342-2.856-1.025s-1.187-1.65-1.187-2.9c0-1.133,0.404-2.066,1.215-2.799
			c0.812-0.733,1.754-1.098,2.828-1.098c1.034,0,1.952,0.332,2.754,0.996c0.801,0.664,1.2,1.631,1.2,2.9
			c0,1.23-0.391,2.192-1.172,2.885C299.141,86.013,298.212,86.36,297.139,86.36z M301.093,99.622v23.115
			c0,1.602-0.381,2.812-1.143,3.633c-0.763,0.821-1.729,1.23-2.9,1.23s-2.124-0.421-2.856-1.26c-0.731-0.84-1.098-2.041-1.098-3.604
			v-22.88c0-1.582,0.365-2.773,1.098-3.574c0.733-0.801,1.686-1.201,2.856-1.201s2.14,0.4,2.9,1.201
			C300.711,97.083,301.093,98.196,301.093,99.622z"/>
		<path d="M338.036,117.698c0,0.996-0.298,2.061-0.895,3.193c-0.596,1.132-1.504,2.211-2.725,3.236s-2.759,1.852-4.614,2.477
			c-1.854,0.625-3.944,0.938-6.27,0.938c-4.941,0-8.799-1.44-11.572-4.322c-2.773-2.881-4.16-6.742-4.16-11.586
			c0-3.281,0.635-6.182,1.904-8.701c1.269-2.519,3.104-4.469,5.508-5.846s5.273-2.064,8.613-2.064c2.07,0,3.97,0.303,5.698,0.908
			c1.728,0.605,3.192,1.387,4.395,2.344s2.119,1.977,2.754,3.061s0.952,2.096,0.952,3.033c0,0.957-0.356,1.768-1.069,2.432
			s-1.577,0.996-2.593,0.996c-0.664,0-1.216-0.172-1.655-0.514c-0.438-0.341-0.933-0.893-1.479-1.654
			c-0.978-1.484-1.997-2.598-3.062-3.34c-1.064-0.742-2.417-1.113-4.058-1.113c-2.363,0-4.268,0.922-5.713,2.768
			c-1.445,1.846-2.168,4.371-2.168,7.574c0,1.504,0.186,2.885,0.557,4.145c0.371,1.26,0.908,2.334,1.611,3.223
			c0.703,0.89,1.553,1.563,2.549,2.021c0.996,0.459,2.09,0.689,3.281,0.689c1.602,0,2.974-0.371,4.116-1.113
			c1.142-0.742,2.152-1.875,3.031-3.398c0.488-0.898,1.017-1.602,1.582-2.109c0.566-0.507,1.261-0.762,2.08-0.762
			c0.978,0,1.787,0.371,2.433,1.113C337.713,116.069,338.036,116.858,338.036,117.698z"/>
		<path d="M362.646,123.938l-7.062-11.602l-4.336,4.102v6.357c0,1.543-0.405,2.729-1.216,3.559c-0.812,0.83-1.743,1.246-2.798,1.246
			c-1.23,0-2.197-0.41-2.9-1.23c-0.703-0.82-1.055-2.031-1.055-3.633V83.636c0-1.777,0.342-3.131,1.024-4.059
			c0.685-0.927,1.66-1.391,2.931-1.391c1.229,0,2.207,0.42,2.93,1.26c0.723,0.84,1.084,2.08,1.084,3.721v24.395l8.994-9.434
			c1.113-1.172,1.963-1.973,2.549-2.402s1.299-0.645,2.139-0.645c0.996,0,1.826,0.317,2.49,0.951
			c0.664,0.635,0.996,1.432,0.996,2.389c0,1.172-1.084,2.734-3.252,4.688l-4.248,3.896l8.203,12.891
			c0.604,0.957,1.04,1.684,1.304,2.182s0.396,0.973,0.396,1.422c0,1.27-0.348,2.27-1.04,3.002c-0.693,0.732-1.606,1.1-2.739,1.1
			c-0.977,0-1.729-0.264-2.256-0.791C364.258,126.284,363.544,125.325,362.646,123.938z"/>
	</g>
	<path display="inline" d="M265.121,107.977l-0.271-24.153c0.015,0.656,0.033,0.755,0.061-1.675c0.005-0.46-0.038-0.864-0.108-1.232
		c0.009-0.09,0.027-0.175,0.027-0.267c0-1.824-1.479-3.304-3.304-3.304c-1.426,0-2.631,0.909-3.094,2.175
		c-0.41,0.759-0.382,1.688-0.382,1.688l-0.302,18.944c-2.307-5.216-6.014,0.275-6.014,0.275l0.005,0.005
		c-0.484,0.062-0.646-0.007-0.646-0.007c-2.723-4.393-5.446,0.275-5.446,0.275c-0.46,0.138-0.839,0.172-1.104,0.17
		c-0.46-0.425-0.997-0.74-1.582-0.74l-0.008,0.032c-1.139-0.176-2.146,0.812-2.146,0.812c-6.957,11.668,0,24.298,0,24.298
		c1.629,1.635,1.664,3.157,1.664,3.157l18.264,0.138l8.354-12.767C271.209,110.448,265.121,107.977,265.121,107.977z
		 M264.831,82.126L264.831,82.126c0.001,0,0.001,0.087,0.002,0.227L264.831,82.126z"/>
</g>
<g>
	<g>
		<path fill="#FFFA5A" d="M83.443,177.711H52.347v23.562h25.992c2.409,0,4.208,0.539,5.396,1.619
			c1.187,1.083,1.781,2.528,1.781,4.335s-0.603,3.242-1.808,4.305c-1.205,1.063-2.993,1.595-5.369,1.595H52.347V238.8
			c0,3.261-0.735,5.68-2.206,7.254c-1.472,1.577-3.358,2.368-5.661,2.368c-2.339,0-4.244-0.796-5.713-2.391
			s-2.207-4.004-2.207-7.229v-63.587c0-2.268,0.337-4.121,1.011-5.556c0.673-1.436,1.728-2.478,3.163-3.137
			c1.436-0.655,3.269-0.981,5.501-0.981h37.209c2.516,0,4.385,0.557,5.608,1.672c1.222,1.116,1.834,2.581,1.834,4.388
			c0,1.843-0.612,3.319-1.834,4.436C87.829,177.153,85.959,177.711,83.443,177.711z"/>
		<path fill="#FFFA5A" d="M151.8,218.92c0,4.324-0.673,8.31-2.019,11.961c-1.347,3.65-3.295,6.785-5.848,9.409
			c-2.553,2.623-5.599,4.631-9.143,6.03s-7.529,2.102-11.959,2.102c-4.395,0-8.346-0.711-11.854-2.126
			c-3.509-1.417-6.546-3.447-9.115-6.087c-2.569-2.638-4.518-5.759-5.848-9.355c-1.328-3.594-1.993-7.573-1.993-11.932
			c0-4.394,0.672-8.416,2.019-12.065c1.347-3.648,3.279-6.767,5.793-9.354c2.515-2.588,5.562-4.58,9.143-5.982
			c3.58-1.398,7.529-2.098,11.854-2.098c4.394,0,8.38,0.709,11.96,2.126c3.58,1.417,6.644,3.438,9.195,6.061
			c2.551,2.622,4.492,5.74,5.82,9.354C151.132,210.578,151.8,214.561,151.8,218.92z M137.237,218.92
			c0-5.918-1.303-10.524-3.906-13.819c-2.604-3.294-6.104-4.944-10.498-4.944c-2.834,0-5.332,0.735-7.495,2.205
			c-2.162,1.471-3.827,3.644-4.998,6.514c-1.17,2.87-1.754,6.219-1.754,10.045c0,3.793,0.575,7.105,1.728,9.941
			c1.151,2.836,2.799,5.004,4.943,6.511c2.145,1.508,4.668,2.261,7.575,2.261c4.394,0,7.895-1.657,10.498-4.972
			C135.934,229.346,137.237,224.766,137.237,218.92z"/>
		<path fill="#FFFA5A" d="M217.552,218.92c0,4.324-0.673,8.31-2.02,11.961c-1.346,3.65-3.294,6.785-5.847,9.409
			c-2.553,2.623-5.6,4.631-9.143,6.03c-3.544,1.399-7.53,2.102-11.961,2.102c-4.394,0-8.346-0.711-11.853-2.126
			c-3.509-1.417-6.547-3.447-9.115-6.087c-2.569-2.638-4.518-5.759-5.848-9.355c-1.328-3.594-1.994-7.573-1.994-11.932
			c0-4.394,0.673-8.416,2.019-12.065c1.346-3.648,3.279-6.767,5.793-9.354c2.515-2.588,5.563-4.58,9.143-5.982
			c3.579-1.398,7.53-2.098,11.853-2.098c4.394,0,8.38,0.709,11.96,2.126c3.579,1.417,6.644,3.438,9.195,6.061
			c2.551,2.622,4.493,5.74,5.82,9.354C216.884,210.578,217.552,214.561,217.552,218.92z M202.988,218.92
			c0-5.918-1.302-10.524-3.906-13.819c-2.604-3.294-6.103-4.944-10.498-4.944c-2.834,0-5.333,0.735-7.495,2.205
			c-2.161,1.471-3.826,3.644-4.996,6.514c-1.17,2.87-1.755,6.219-1.755,10.045c0,3.793,0.576,7.105,1.728,9.941
			c1.153,2.836,2.8,5.004,4.944,6.511c2.145,1.508,4.668,2.261,7.575,2.261c4.395,0,7.895-1.657,10.498-4.972
			S202.988,224.766,202.988,218.92z"/>
		<path fill="#FFFA5A" d="M297.019,239.597v-72.008c0-2.906,0.646-5.101,1.94-6.591c1.293-1.489,3.038-2.231,5.235-2.231
			s3.971,0.734,5.315,2.204c1.347,1.471,2.02,3.678,2.02,6.619v72.008c0,2.94-0.682,5.147-2.046,6.614
			c-1.364,1.472-3.129,2.208-5.289,2.208c-2.126,0-3.854-0.764-5.183-2.287C297.683,244.611,297.019,242.432,297.019,239.597z"/>
		<path fill="#FFFA5A" d="M333.856,173.596c-2.021,0-3.747-0.62-5.183-1.86c-1.436-1.239-2.153-2.993-2.153-5.261
			c0-2.055,0.734-3.749,2.204-5.078c1.473-1.33,3.183-1.992,5.132-1.992c1.876,0,3.542,0.602,4.996,1.807
			c1.453,1.205,2.178,2.959,2.178,5.261c0,2.232-0.709,3.977-2.126,5.234C337.488,172.967,335.804,173.596,333.856,173.596z
			 M341.03,197.658v41.939c0,2.906-0.69,5.101-2.073,6.591c-1.384,1.489-3.138,2.231-5.262,2.231c-2.125,0-3.854-0.764-5.183-2.287
			c-1.327-1.523-1.992-3.703-1.992-6.539v-41.514c0-2.871,0.663-5.031,1.992-6.484c1.33-1.454,3.058-2.179,5.183-2.179
			c2.124,0,3.882,0.726,5.262,2.179C340.338,193.05,341.03,195.071,341.03,197.658z"/>
		<path fill="#FFFA5A" d="M408.059,230.455c0,1.806-0.541,3.739-1.623,5.793c-1.081,2.054-2.729,4.011-4.943,5.871
			c-2.215,1.859-5.006,3.36-8.372,4.494c-3.364,1.134-7.156,1.702-11.375,1.702c-8.966,0-15.964-2.612-20.996-7.841
			c-5.032-5.228-7.548-12.232-7.548-21.021c0-5.953,1.151-11.216,3.455-15.786c2.302-4.57,5.633-8.109,9.993-10.607
			s9.567-3.745,15.627-3.745c3.757,0,7.202,0.55,10.339,1.648c3.134,1.097,5.792,2.516,7.973,4.252
			c2.182,1.736,3.846,3.587,4.997,5.554c1.151,1.967,1.728,3.803,1.728,5.503c0,1.736-0.646,3.208-1.94,4.413
			c-1.293,1.204-2.861,1.807-4.704,1.807c-1.205,0-2.206-0.312-3.003-0.932c-0.796-0.619-1.692-1.62-2.683-3.001
			c-1.773-2.692-3.623-4.713-5.557-6.06c-1.932-1.347-4.385-2.019-7.362-2.019c-4.287,0-7.742,1.673-10.364,5.021
			c-2.623,3.35-3.934,7.931-3.934,13.742c0,2.729,0.336,5.235,1.01,7.521c0.673,2.286,1.647,4.234,2.924,5.848
			c1.275,1.614,2.816,2.836,4.624,3.667c1.808,0.833,3.792,1.25,5.953,1.25c2.906,0,5.396-0.673,7.469-2.02
			c2.071-1.346,3.904-3.402,5.499-6.165c0.887-1.629,1.845-2.907,2.871-3.826c1.027-0.919,2.287-1.383,3.773-1.383
			c1.773,0,3.242,0.673,4.414,2.02C407.472,227.499,408.059,228.93,408.059,230.455z"/>
		<path fill="#FFFA5A" d="M452.71,241.776l-12.812-21.05l-7.866,7.442v11.534c0,2.799-0.735,4.952-2.206,6.458
			c-1.473,1.506-3.163,2.261-5.076,2.261c-2.232,0-3.987-0.744-5.263-2.231c-1.275-1.488-1.913-3.686-1.913-6.591v-70.944
			c0-3.225,0.62-5.682,1.858-7.365c1.242-1.682,3.012-2.524,5.317-2.524c2.23,0,4.004,0.762,5.315,2.286
			c1.311,1.524,1.967,3.774,1.967,6.751v44.261l16.318-17.117c2.02-2.126,3.562-3.58,4.624-4.357c1.063-0.779,2.356-1.17,3.881-1.17
			c1.807,0,3.313,0.575,4.518,1.726c1.205,1.152,1.808,2.598,1.808,4.334c0,2.126-1.967,4.961-5.9,8.506l-7.707,7.068l14.883,23.389
			c1.097,1.736,1.887,3.055,2.365,3.959s0.72,1.765,0.72,2.58c0,2.305-0.631,4.119-1.887,5.447c-1.258,1.328-2.915,1.996-4.97,1.996
			c-1.772,0-3.139-0.479-4.094-1.436C455.634,246.031,454.338,244.292,452.71,241.776z"/>
	</g>
	<path fill="#FFFA5A" d="M275.766,212.817l-0.493-43.821c0.027,1.19,0.061,1.37,0.11-3.04c0.009-0.834-0.069-1.567-0.197-2.235
		c0.017-0.163,0.05-0.317,0.05-0.484c0-3.309-2.684-5.994-5.994-5.994c-2.587,0-4.772,1.648-5.612,3.946
		c-0.744,1.377-0.693,3.062-0.693,3.062l-0.548,34.372c-4.185-9.464-10.91,0.499-10.91,0.499l0.009,0.009
		c-0.879,0.112-1.171-0.013-1.171-0.013c-4.94-7.97-9.88,0.499-9.88,0.499c-0.834,0.25-1.522,0.312-2.003,0.308
		c-0.835-0.771-1.809-1.343-2.871-1.343l-0.014,0.058c-2.067-0.319-3.894,1.474-3.894,1.474c-12.623,21.169,0,44.084,0,44.084
		c2.956,2.967,3.019,5.728,3.019,5.728l33.137,0.25l15.158-23.164C286.811,217.301,275.766,212.817,275.766,212.817z
		 M275.239,165.914L275.239,165.914c0.002,0,0.002,0.158,0.004,0.412L275.239,165.914z"/>
</g>
</svg>
